<svg width="28" height="28" viewBox="0 0 28 28" fill="none" xmlns="http://www.w3.org/2000/svg">
<path d="M15.3333 24.5838C18.023 24.2416 20.4815 22.888 22.209 20.7982C23.9366 18.7084 24.8036 16.0392 24.6338 13.3331C24.464 10.627 23.2702 8.08715 21.295 6.22968C19.3197 4.3722 16.7114 3.33653 14 3.33317C11.2852 3.33115 8.67189 4.36429 6.69241 6.22207C4.71293 8.07986 3.51628 10.6225 3.34628 13.3319C3.17629 16.0413 4.04574 18.7135 5.77748 20.8042C7.50923 22.8948 9.97294 24.2465 12.6666 24.5838V16.6665H9.99996V13.9998H12.6666V11.7945C12.6666 10.0118 12.8533 9.36517 13.2 8.71317C13.5414 8.06808 14.0692 7.54075 14.7146 7.19984C15.224 6.9265 15.8573 6.7625 16.964 6.69184C17.4026 6.66384 17.9706 6.6985 18.668 6.7985V9.33184H18C16.7773 9.33184 16.272 9.38917 15.9706 9.5505C15.7908 9.64298 15.6444 9.78937 15.552 9.96917C15.392 10.2705 15.3333 10.5692 15.3333 11.7932V13.9998H18.6666L18 16.6665H15.3333V24.5838ZM14 27.3332C6.63596 27.3332 0.666626 21.3638 0.666626 13.9998C0.666626 6.63584 6.63596 0.666504 14 0.666504C21.364 0.666504 27.3333 6.63584 27.3333 13.9998C27.3333 21.3638 21.364 27.3332 14 27.3332Z" fill="#E3E6FF"/>
</svg>
