<svg width="28" height="28" viewBox="0 0 28 28" fill="none" xmlns="http://www.w3.org/2000/svg">
<path d="M14 9.99984C12.9391 9.99984 11.9217 10.4213 11.1715 11.1714C10.4214 11.9216 9.99996 12.939 9.99996 13.9998C9.99996 15.0607 10.4214 16.0781 11.1715 16.8283C11.9217 17.5784 12.9391 17.9998 14 17.9998C15.0608 17.9998 16.0782 17.5784 16.8284 16.8283C17.5785 16.0781 18 15.0607 18 13.9998C18 12.939 17.5785 11.9216 16.8284 11.1714C16.0782 10.4213 15.0608 9.99984 14 9.99984ZM14 7.33317C15.7681 7.33317 17.4638 8.03555 18.714 9.28579C19.9642 10.536 20.6666 12.2317 20.6666 13.9998C20.6666 15.7679 19.9642 17.4636 18.714 18.7139C17.4638 19.9641 15.7681 20.6665 14 20.6665C12.2318 20.6665 10.5362 19.9641 9.28591 18.7139C8.03567 17.4636 7.33329 15.7679 7.33329 13.9998C7.33329 12.2317 8.03567 10.536 9.28591 9.28579C10.5362 8.03555 12.2318 7.33317 14 7.33317ZM22.6666 6.99984C22.6666 7.44186 22.491 7.86579 22.1785 8.17835C21.8659 8.49091 21.442 8.6665 21 8.6665C20.5579 8.6665 20.134 8.49091 19.8214 8.17835C19.5089 7.86579 19.3333 7.44186 19.3333 6.99984C19.3333 6.55781 19.5089 6.13389 19.8214 5.82133C20.134 5.50877 20.5579 5.33317 21 5.33317C21.442 5.33317 21.8659 5.50877 22.1785 5.82133C22.491 6.13389 22.6666 6.55781 22.6666 6.99984ZM14 3.33317C10.7013 3.33317 10.1626 3.3425 8.62796 3.4105C7.58263 3.45984 6.88129 3.59984 6.23063 3.85317C5.65196 4.07717 5.23463 4.34517 4.79063 4.7905C4.3733 5.1937 4.05243 5.68595 3.85196 6.2305C3.59863 6.88384 3.45863 7.58384 3.41063 8.62784C3.34129 10.0998 3.33329 10.6145 3.33329 13.9998C3.33329 17.2985 3.34263 17.8372 3.41063 19.3718C3.45996 20.4158 3.59996 21.1185 3.85196 21.7678C4.07863 22.3478 4.34529 22.7652 4.78796 23.2078C5.23729 23.6558 5.65463 23.9238 6.22796 24.1452C6.88663 24.3998 7.58796 24.5412 8.62796 24.5892C10.1 24.6585 10.6146 24.6665 14 24.6665C17.2986 24.6665 17.8373 24.6572 19.372 24.5892C20.4146 24.5398 21.1173 24.3998 21.768 24.1478C22.3453 23.9225 22.7653 23.6545 23.208 23.2118C23.6573 22.7625 23.9253 22.3452 24.1466 21.7718C24.4 21.1145 24.5413 20.4118 24.5893 19.3718C24.6586 17.8998 24.6666 17.3852 24.6666 13.9998C24.6666 10.7012 24.6573 10.1625 24.5893 8.62784C24.54 7.58517 24.4 6.88117 24.1466 6.2305C23.9457 5.68651 23.6254 5.19445 23.2093 4.7905C22.8063 4.37297 22.314 4.05206 21.7693 3.85184C21.116 3.5985 20.4146 3.4585 19.372 3.4105C17.9 3.34117 17.3853 3.33317 14 3.33317ZM14 0.666504C17.6226 0.666504 18.0746 0.679837 19.496 0.746504C20.916 0.813171 21.8826 1.03584 22.7333 1.3665C23.6133 1.70517 24.3546 2.16384 25.096 2.90384C25.774 3.57037 26.2986 4.37662 26.6333 5.2665C26.9626 6.11584 27.1866 7.08384 27.2533 8.50384C27.316 9.92517 27.3333 10.3772 27.3333 13.9998C27.3333 17.6225 27.32 18.0745 27.2533 19.4958C27.1866 20.9158 26.9626 21.8825 26.6333 22.7332C26.2995 23.6235 25.7748 24.43 25.096 25.0958C24.4292 25.7736 23.623 26.2982 22.7333 26.6332C21.884 26.9625 20.916 27.1865 19.496 27.2532C18.0746 27.3158 17.6226 27.3332 14 27.3332C10.3773 27.3332 9.92529 27.3198 8.50396 27.2532C7.08396 27.1865 6.11729 26.9625 5.26663 26.6332C4.37639 26.2991 3.57 25.7744 2.90396 25.0958C2.22583 24.4294 1.7012 23.6231 1.36663 22.7332C1.03596 21.8838 0.813293 20.9158 0.746626 19.4958C0.683959 18.0745 0.666626 17.6225 0.666626 13.9998C0.666626 10.3772 0.679959 9.92517 0.746626 8.50384C0.813293 7.0825 1.03596 6.11717 1.36663 5.2665C1.70027 4.37608 2.22503 3.5696 2.90396 2.90384C3.57019 2.22548 4.37653 1.70081 5.26663 1.3665C6.11729 1.03584 7.08263 0.813171 8.50396 0.746504C9.92529 0.683837 10.3773 0.666504 14 0.666504Z" fill="#E3E6FF"/>
</svg>
